<svg width="58" height="58" viewBox="0 0 58 58" fill="none" xmlns="http://www.w3.org/2000/svg">
<circle cx="29" cy="29" r="29" fill="white" fill-opacity="0.2"/>
<path d="M27.5529 36.1059C29.4506 36.1055 31.2936 35.4702 32.7884 34.3012L37.4883 39.0011L39 37.4893L34.3002 32.7895C35.4698 31.2945 36.1054 29.4511 36.1059 27.5529C36.1059 22.8371 32.2688 19 27.5529 19C22.8371 19 19 22.8371 19 27.5529C19 32.2688 22.8371 36.1059 27.5529 36.1059ZM27.5529 21.1382C31.0907 21.1382 33.9677 24.0152 33.9677 27.5529C33.9677 31.0907 31.0907 33.9677 27.5529 33.9677C24.0152 33.9677 21.1382 31.0907 21.1382 27.5529C21.1382 24.0152 24.0152 21.1382 27.5529 21.1382Z" fill="white"/>
<path d="M29.0622 26.0413C29.4674 26.4475 29.6908 26.9842 29.6908 27.553H31.8291C31.83 26.9911 31.7196 26.4346 31.5041 25.9156C31.2887 25.3967 30.9725 24.9255 30.5739 24.5295C28.9553 22.913 26.1488 22.913 24.5312 24.5295L26.0408 26.0434C26.8534 25.233 28.2539 25.2351 29.0622 26.0413Z" fill="white"/>
</svg>
