<svg width="58" height="58" viewBox="0 0 58 58" fill="none" xmlns="http://www.w3.org/2000/svg">
<circle cx="29" cy="29" r="29" fill="white" fill-opacity="0.2"/>
<path d="M24.3755 33.999L25.6255 32.437L21.6015 29.218L25.6255 25.999L24.3755 24.437L19.3755 28.437C19.2583 28.5307 19.1637 28.6495 19.0987 28.7847C19.0337 28.9199 19 29.068 19 29.218C19 29.368 19.0337 29.5161 19.0987 29.6513C19.1637 29.7865 19.2583 29.9053 19.3755 29.999L24.3755 33.999ZM33.6255 24.437L32.3755 25.999L36.3995 29.218L32.3755 32.437L33.6255 33.999L38.6255 29.999C38.7426 29.9053 38.8372 29.7865 38.9022 29.6513C38.9672 29.5161 39.0009 29.368 39.0009 29.218C39.0009 29.068 38.9672 28.9199 38.9022 28.7847C38.8372 28.6495 38.7426 28.5307 38.6255 28.437L33.6255 24.437Z" fill="white"/>
<path d="M31.9764 20.434L27.9764 38.434L26.0234 38L30.0234 20L31.9764 20.434Z" fill="white"/>
</svg>
