<svg width="58" height="58" viewBox="0 0 58 58" fill="none" xmlns="http://www.w3.org/2000/svg">
<circle cx="29" cy="29" r="29" fill="white" fill-opacity="0.2"/>
<path d="M37.6781 34.2192L35.1598 32.7648C35.1184 32.7411 35.0728 32.7258 35.0255 32.7198C34.9782 32.7137 34.9302 32.7171 34.8842 32.7296C34.8382 32.7421 34.7951 32.7635 34.7574 32.7927C34.7197 32.8219 34.6881 32.8582 34.6644 32.8995L34.21 33.6872C34.1096 33.8607 34.169 34.0845 34.3425 34.1849L36.8607 35.6393C36.9021 35.663 36.9477 35.6783 36.995 35.6843C37.0423 35.6904 37.0903 35.687 37.1363 35.6745C37.1824 35.662 37.2254 35.6406 37.2632 35.6114C37.3009 35.5823 37.3325 35.5459 37.3562 35.5046L37.8105 34.7169C37.911 34.5434 37.8493 34.3196 37.6781 34.2192ZM34.6621 25.2283C34.6858 25.2697 34.7174 25.306 34.7551 25.3352C34.7928 25.3643 34.8359 25.3858 34.8819 25.3983C34.9279 25.4108 34.9759 25.4141 35.0232 25.4081C35.0705 25.402 35.1162 25.3867 35.1575 25.363L37.6758 23.9087C37.8493 23.8082 37.9087 23.5845 37.8082 23.411L37.3562 22.6256C37.3325 22.5842 37.3009 22.5479 37.2632 22.5187C37.2254 22.4896 37.1824 22.4681 37.1363 22.4556C37.0903 22.4431 37.0423 22.4398 36.995 22.4458C36.9477 22.4519 36.9021 22.4672 36.8607 22.4909L34.3425 23.9452C34.2591 23.9938 34.1983 24.0735 34.1735 24.1667C34.1487 24.26 34.1618 24.3593 34.21 24.4429L34.6621 25.2283ZM38.6347 28.242H35.7123C35.5114 28.242 35.347 28.4064 35.347 28.6073V29.5205C35.347 29.7215 35.5114 29.8858 35.7123 29.8858H38.6347C38.8356 29.8858 39 29.7215 39 29.5205V28.6073C39 28.4064 38.8356 28.242 38.6347 28.242ZM31.6005 20C31.4658 20 31.3288 20.0365 31.2032 20.121L23.1096 25.411H19.3653C19.1644 25.411 19 25.5753 19 25.7763V32.3516C19 32.5525 19.1644 32.7169 19.3653 32.7169H23.1096L31.2032 38.0068C31.3288 38.089 31.468 38.1279 31.6005 38.1279C31.9817 38.1279 32.3333 37.8242 32.3333 37.395V20.7329C32.3333 20.3037 31.9817 20 31.6005 20Z" fill="white"/>
</svg>
